<?xml version="1.0" encoding="UTF-8" standalone="no"?>
<!-- Created with Inkscape (http://www.inkscape.org/) -->

<svg
   xmlns:dc="http://purl.org/dc/elements/1.1/"
   xmlns:cc="http://creativecommons.org/ns#"
   xmlns:rdf="http://www.w3.org/1999/02/22-rdf-syntax-ns#"
   xmlns:svg="http://www.w3.org/2000/svg"
   xmlns="http://www.w3.org/2000/svg"
   xmlns:sodipodi="http://sodipodi.sourceforge.net/DTD/sodipodi-0.dtd"
   xmlns:inkscape="http://www.inkscape.org/namespaces/inkscape"
   width="96"
   height="96"
   viewBox="0 0 96.000001 96.000002"
   id="svg6385"
   version="1.1"
   inkscape:version="0.91 r13725"
   sodipodi:docname="hering.svg">
  <defs
     id="defs6387" />
  <sodipodi:namedview
     id="base"
     pagecolor="#ffffff"
     bordercolor="#666666"
     borderopacity="1.0"
     inkscape:pageopacity="0.0"
     inkscape:pageshadow="2"
     inkscape:zoom="2.4384615"
     inkscape:cx="38.571429"
     inkscape:cy="58.571429"
     inkscape:document-units="px"
     inkscape:current-layer="layer1"
     showgrid="false"
     units="px"
     inkscape:window-width="1536"
     inkscape:window-height="801"
     inkscape:window-x="-8"
     inkscape:window-y="-8"
     inkscape:window-maximized="1" />
  <metadata
     id="metadata6390">
    <rdf:RDF>
      <cc:Work
         rdf:about="">
        <dc:format>image/svg+xml</dc:format>
        <dc:type
           rdf:resource="http://purl.org/dc/dcmitype/StillImage" />
        <dc:title></dc:title>
      </cc:Work>
    </rdf:RDF>
  </metadata>
  <g
     inkscape:label="Layer 1"
     inkscape:groupmode="layer"
     id="layer1"
     transform="translate(0,-956.36211)">
    <g
       inkscape:export-ydpi="90"
       inkscape:export-xdpi="90"
       transform="matrix(0.41740895,0,0,0.41740396,265.75083,516.3286)"
       id="g6323">
      <path
         style="opacity:1;fill:#ffffff;fill-opacity:1;fill-rule:nonzero;stroke:#ffffff;stroke-width:2.5;stroke-linecap:round;stroke-linejoin:miter;stroke-miterlimit:4;stroke-dasharray:none;stroke-dashoffset:0;stroke-opacity:1"
         d="m -605.32511,1055.7599 c -15.745,0 -28.4199,12.6748 -28.4199,28.42 l 0,170.6504 c 0,15.7449 12.6749,28.4199 28.4199,28.4199 l 170.64846,0 c 15.74513,0 28.42193,-12.6749 28.42193,-28.4199 l 0,-170.6504 c 0,-15.7452 -12.67681,-28.42 -28.42193,-28.42 l -170.64846,0 z"
         id="path6325"
         inkscape:connector-curvature="0" />
      <path
         id="path6327"
         d="m -605.32502,1055.7599 c -15.745,0 -28.4199,12.6749 -28.4199,28.42 l 0,170.6504 c 0,15.745 12.6749,28.4199 28.4199,28.4199 l 170.6484,0 c 15.745,0 28.4218,-12.6749 28.4218,-28.4199 l 0,-170.6504 c 0,-15.7451 -12.6768,-28.42 -28.4218,-28.42 l -170.6484,0 z m 163.2754,15.1387 c 9.6451,1.3159 17.7143,4.6403 20.7792,18.9492 l -0.2325,5.1739 c -5.853,6.148 -50.0471,52.5015 -50.1932,50.5996 -0.7891,-10.2749 -13.6435,-28.707 -21.877,-30.9532 0.9571,-1.5951 43.0508,-43.5058 43.0508,-43.5058 l 8.4727,-0.2637 z m -85.7774,39.9961 c 5.3454,0.044 10.9012,0.9279 16.5586,2.8047 24.3348,8.1564 41.7808,35.5189 31.8692,65.2598 -9.1804,27.5464 -35.2135,25.2565 -43.2793,49.4589 l -3.4414,10.3262 c -3.5383,10.6173 -17.0525,19.604 -32.6231,14.4844 -0.5296,-0.3622 -1.1068,-0.7879 -1.8105,-1.1152 -2.5777,-1.8112 -3.5892,-5.4696 -1.8965,-8.1797 1.6648,-2.2782 4.2371,-2.115 7.5254,-1.3907 l 0.207,0.068 c 7.8515,2.7095 16.5943,-3.2479 18.5098,-8.7167 l 3.8027,-11.4122 c 7.7037,-23.3942 35.305,-24.4109 43.0156,-47.8261 7.3833,-21.8755 -6.8917,-45.0266 -25.6113,-51.2188 -15.494,-5.2101 -29.3978,1.2565 -35.1172,5.1094 -16.963,10.8341 -14.782,27.2811 -23.2676,24.4531 -2.4035,-0.8009 -4.3142,-2.9466 -2.7539,-7.7676 5.9762,-18.9512 25.1494,-34.53 48.3125,-34.3379 z m 0.6836,14.9199 c 2.8826,-0.035 5.5507,0.3311 7.8184,1.0782 l 3.7617,1.2539 c 20.9699,7.035 26.3488,31.0259 21.9258,44.5761 -0.9613,2.6056 -2.3679,4.6682 -5.336,3.6094 -6.3118,-2.0338 -0.6756,-11.4169 -2.996,-21.7344 -1.0523,-5.0646 -6.3763,-15.3597 -15.3633,-18.2851 l -3.3028,-1.1016 c -4.8068,-1.6717 -14.8037,-1.915 -23.9296,5.1914 -11.2714,8.5277 -8.9846,18.253 -15.3243,16.0938 -0.9963,-0.2856 -3.7273,-1.4993 -2.1601,-6.0625 5.8574,-16.7834 22.4151,-24.4653 34.9062,-24.6192 z m -43.9922,67.9961 34.0352,19.2168 -55.5254,54.9942 c -16.9919,1.2068 -28.2323,-9.9363 -25.7656,-26.5098 l 47.2558,-47.7012 z"
         style="opacity:1;fill:#003984;fill-opacity:1;fill-rule:nonzero;stroke:none;stroke-width:2.5;stroke-linecap:round;stroke-linejoin:miter;stroke-miterlimit:4;stroke-dasharray:none;stroke-dashoffset:0;stroke-opacity:1"
         inkscape:connector-curvature="0"
         inkscape:export-xdpi="90"
         inkscape:export-ydpi="90" />
    </g>
  </g>
</svg>
