<?xml version="1.0" encoding="UTF-8" standalone="no"?>
<!-- Created with Inkscape (http://www.inkscape.org/) -->

<svg
   xmlns:dc="http://purl.org/dc/elements/1.1/"
   xmlns:cc="http://creativecommons.org/ns#"
   xmlns:rdf="http://www.w3.org/1999/02/22-rdf-syntax-ns#"
   xmlns:svg="http://www.w3.org/2000/svg"
   xmlns="http://www.w3.org/2000/svg"
   xmlns:sodipodi="http://sodipodi.sourceforge.net/DTD/sodipodi-0.dtd"
   xmlns:inkscape="http://www.inkscape.org/namespaces/inkscape"
   width="96"
   height="96"
   viewBox="0 0 96.000001 96.000002"
   id="svg6385"
   version="1.1"
   inkscape:version="0.91 r13725"
   sodipodi:docname="intelectual.svg">
  <defs
     id="defs6387" />
  <sodipodi:namedview
     id="base"
     pagecolor="#ffffff"
     bordercolor="#666666"
     borderopacity="1.0"
     inkscape:pageopacity="0.0"
     inkscape:pageshadow="2"
     inkscape:zoom="2.4384615"
     inkscape:cx="38.571429"
     inkscape:cy="58.571429"
     inkscape:document-units="px"
     inkscape:current-layer="layer1"
     showgrid="false"
     units="px"
     inkscape:window-width="1536"
     inkscape:window-height="801"
     inkscape:window-x="-8"
     inkscape:window-y="-8"
     inkscape:window-maximized="1" />
  <metadata
     id="metadata6390">
    <rdf:RDF>
      <cc:Work
         rdf:about="">
        <dc:format>image/svg+xml</dc:format>
        <dc:type
           rdf:resource="http://purl.org/dc/dcmitype/StillImage" />
        <dc:title></dc:title>
      </cc:Work>
    </rdf:RDF>
  </metadata>
  <g
     inkscape:label="Layer 1"
     inkscape:groupmode="layer"
     id="layer1"
     transform="translate(0,-956.36211)">
    <g
       inkscape:export-ydpi="90"
       inkscape:export-xdpi="90"
       transform="matrix(0.41740895,0,0,0.41740414,152.31114,383.5792)"
       id="g6353">
      <path
         style="opacity:1;fill:#ffffff;fill-opacity:1;fill-rule:nonzero;stroke:#ffffff;stroke-width:2.5;stroke-linecap:round;stroke-linejoin:miter;stroke-miterlimit:4;stroke-dasharray:none;stroke-dashoffset:0;stroke-opacity:1"
         d="m -334.53648,1375.76 c -15.745,0 -28.4199,12.6748 -28.4199,28.4199 l 0,170.6504 c 0,15.745 12.6749,28.4199 28.4199,28.4199 l 170.64846,0 c 15.74513,0 28.42193,-12.6749 28.42193,-28.4199 l 0,-170.6504 c 0,-15.7451 -12.6768,-28.4199 -28.42193,-28.4199 l -170.64846,0 z"
         id="path6355"
         inkscape:connector-curvature="0" />
      <path
         style="opacity:1;fill:#003984;fill-opacity:1;fill-rule:nonzero;stroke:none;stroke-width:2.5;stroke-linecap:round;stroke-linejoin:miter;stroke-miterlimit:4;stroke-dasharray:none;stroke-dashoffset:0;stroke-opacity:1"
         d="m -334.53642,1375.7599 c -15.745,0 -28.4199,12.6749 -28.4199,28.42 l 0,170.6504 c 0,15.745 12.6749,28.4199 28.4199,28.4199 l 170.64837,0 c 15.7451,0 28.4219,-12.6749 28.4219,-28.4199 l 0,-170.6504 c 0,-15.7451 -12.6768,-28.42 -28.4219,-28.42 l -170.64837,0 z m 79.1172,43.8165 c 5.7196,0.049 11.3398,1.672 16.1699,4.8964 13.2988,-4.5545 32.1779,-6.0475 47.8203,16.2051 9.2776,1.3339 46.56797,59.6172 -14.8516,61.2246 -12.5232,27.2206 -26.4396,22.8965 -40.2148,21.7363 -20.4828,13.2959 -46.0618,-8.4253 -18.4766,-28.2578 -7.2723,-11.475 13.4717,-23.0518 19.2012,-15.9394 6.2995,-9.1631 14.6978,-13.6061 27.8965,-7.2461 1.3701,-1.8916 3.8758,-3.5597 1.5605,-6.168 -5.935,-2.3468 -8.9278,-6.3487 -19.6738,-1.0781 -6.8776,-15.0464 28.8613,-43.0617 34.6543,-5.9082 12.0254,3.3497 17.6566,22.9462 -6.7598,23.6621 -15.6451,-1.6871 -26.7026,4.6532 -33.6933,18.1113 -6.9525,7.2662 -8.8069,3.7626 -11.2285,1.4512 -7.733,-0.152 -4.8918,2.3411 -2.5371,4.7109 3.9005,5.8083 6.685,3.8049 9.7812,3.9825 16.9937,-9.0444 12.6854,-25.3689 40.5742,-21.7364 20.0047,2.2257 27.2248,-22.7823 10.6094,-33.2031 -8.8833,-25.1848 -26.8436,-24.662 -37.8359,-14.4258 -6.741,-9.8261 -28.825,-17.9523 -41.4297,2.2813 -13.5382,1.4477 -22.0161,3.8811 -24.0879,21.6035 -35.2127,7.5489 -11.7266,45.6925 8.1953,30.791 0.9218,-4.7665 -2.414,-4.8071 -6.7031,-3.4766 -30.2577,0.714 -3.1784,-45.4667 23.8691,0.053 -7.9266,3.7531 -10.5406,10.4949 -11.5918,18.1153 -21.2437,9.7556 -63.5477,-12.9719 -30.0703,-54.707 -0.613,-9.627 15.7946,-27.0433 32.6055,-23.9102 6.8764,-8.5547 16.684,-12.8485 26.2168,-12.7676 z m 1.3457,17.6191 c 5.0211,0.084 10.6054,2.6201 16.6367,7.1055 -4.265,7.2748 -7.8096,14.6356 -1.4492,23.1855 -5.1932,-0.8337 -7.0769,1.3136 -7.9727,4.3477 -19.1856,-0.9586 -18.9178,6.9968 -23.1484,12.8925 -5.8998,-7.0589 -12.2595,-13.4384 -22.8594,-17.2402 2.4833,-9.4758 5.5605,-18.5156 22.4609,-17.3906 4.3506,-9.0643 9.8765,-13.0082 16.3321,-12.9004 z m 81.11907,61.3828 c -1.949,13.2488 -3.61187,26.6063 -23.69527,33.1074 -10.8483,5.1868 -21.5241,8.8538 -30.668,-1.2988 10.4582,-3.5091 18.5325,-10.8282 24.6641,-21.2598 11.3479,0.3466 20.9402,-3.9919 29.69917,-10.5488 z m -72.94727,32.0527 c 4.7892,1.1978 8.6696,3.6656 12.7403,2.5157 3.4316,4.4972 8.6861,7.991 13.1426,10.5488 0.3472,6.9555 4.0591,10.5462 6.8164,15.0918 l -8.9239,0.6484 c -9.5614,-7.6044 -17.9227,-16.6735 -23.7754,-28.8047 z"
         id="path6357"
         inkscape:connector-curvature="0"
         inkscape:export-xdpi="90"
         inkscape:export-ydpi="90" />
    </g>
  </g>
</svg>
