<?xml version="1.0" encoding="UTF-8" standalone="no"?>
<!-- Created with Inkscape (http://www.inkscape.org/) -->

<svg
   xmlns:dc="http://purl.org/dc/elements/1.1/"
   xmlns:cc="http://creativecommons.org/ns#"
   xmlns:rdf="http://www.w3.org/1999/02/22-rdf-syntax-ns#"
   xmlns:svg="http://www.w3.org/2000/svg"
   xmlns="http://www.w3.org/2000/svg"
   xmlns:sodipodi="http://sodipodi.sourceforge.net/DTD/sodipodi-0.dtd"
   xmlns:inkscape="http://www.inkscape.org/namespaces/inkscape"
   width="96"
   height="96"
   viewBox="0 0 96.000001 96.000002"
   id="svg6385"
   version="1.1"
   inkscape:version="0.91 r13725"
   sodipodi:docname="motor.svg">
  <defs
     id="defs6387" />
  <sodipodi:namedview
     id="base"
     pagecolor="#ffffff"
     bordercolor="#666666"
     borderopacity="1.0"
     inkscape:pageopacity="0.0"
     inkscape:pageshadow="2"
     inkscape:zoom="2.4384615"
     inkscape:cx="38.571429"
     inkscape:cy="58.571429"
     inkscape:document-units="px"
     inkscape:current-layer="layer1"
     showgrid="false"
     units="px"
     inkscape:window-width="1536"
     inkscape:window-height="801"
     inkscape:window-x="-8"
     inkscape:window-y="-8"
     inkscape:window-maximized="1" />
  <metadata
     id="metadata6390">
    <rdf:RDF>
      <cc:Work
         rdf:about="">
        <dc:format>image/svg+xml</dc:format>
        <dc:type
           rdf:resource="http://purl.org/dc/dcmitype/StillImage" />
        <dc:title></dc:title>
      </cc:Work>
    </rdf:RDF>
  </metadata>
  <g
     inkscape:label="Layer 1"
     inkscape:groupmode="layer"
     id="layer1"
     transform="translate(0,-956.36211)">
    <g
       inkscape:export-ydpi="90"
       inkscape:export-xdpi="90"
       transform="matrix(0.41740895,0,0,0.41740407,371.21483,667.00402)"
       id="g6311">
      <path
         style="opacity:1;fill:#ffffff;fill-opacity:1;fill-rule:nonzero;stroke:#ffffff;stroke-width:2.5;stroke-linecap:round;stroke-linejoin:miter;stroke-miterlimit:4;stroke-dasharray:none;stroke-dashoffset:0;stroke-opacity:1"
         d="m -858.9711,695.75994 c -15.745,0 -28.4199,12.67488 -28.4199,28.41992 l 0,170.65039 c 0,15.74505 12.6749,28.41993 28.4199,28.41993 l 170.64846,0 c 15.74513,0 28.42193,-12.67488 28.42193,-28.41993 l 0,-170.65039 c 0,-15.74504 -12.6768,-28.41992 -28.42193,-28.41992 l -170.64846,0 z"
         id="path6313"
         inkscape:connector-curvature="0" />
      <path
         style="opacity:1;fill:#003984;fill-opacity:1;fill-rule:nonzero;stroke:none;stroke-width:2.5;stroke-linecap:round;stroke-linejoin:miter;stroke-miterlimit:4;stroke-dasharray:none;stroke-dashoffset:0;stroke-opacity:1"
         d="m -858.97106,695.75994 c -15.745,0 -28.4199,12.67489 -28.4199,28.41993 l 0,170.65039 c 0,15.74505 12.6749,28.41992 28.4199,28.41992 l 170.6485,0 c 15.7451,0 28.4218,-12.67487 28.4218,-28.41992 l 0,-170.65039 c 0,-15.74504 -12.6767,-28.41993 -28.4218,-28.41993 l -170.6485,0 z m 91.7949,42.0918 c 5.9177,-0.0525 11.4653,3.40561 14.7559,10.5332 14.7113,-0.49461 20.396,7.5301 21.0703,20.81836 7.2305,1.31567 15.1476,-0.3993 18.7852,16.75782 l 0.2539,45.69335 -6.0938,36.56055 c -2.102,5.61318 -4.7639,11.08584 -15.9902,12.94531 l -52.5508,-0.2539 c -6.4328,0.12922 -10.7229,-2.95519 -14.4707,-6.85352 l -30.4668,-43.66406 c -10.4066,-18.91299 7.0852,-38.26782 27.4219,-28.17773 l -1.0156,-36.81446 c 0.9111,-12.653 8.4932,-18.72992 21.3222,-17.01172 4.7717,-6.91755 11.0608,-10.48074 16.9785,-10.5332 z m -1.1894,11.49805 c -3.5913,0.0445 -7.0197,2.3193 -7.4141,5.89062 l -0.2558,53.3125 c -0.2208,3.01404 -4.3309,1.77996 -4.0606,0 l 0.209,-42.8789 c -0.3556,-9.13628 -15.1144,-9.10919 -15.3477,-0.16211 0,0 0.4179,65.13072 -0.3437,64.11523 l -12.9492,-17.26172 c -8.6323,-9.58006 -22.0221,4.4455 -15.7364,11.41992 l 35.0293,47.47461 55.3457,0 c 3.623,-1.25727 5.6511,-4.39764 7.6153,-7.61523 l 4.0605,-27.41992 0.3008,-50.70313 c 0.1144,-8.03832 -15.603,-8.90489 -15.668,0.0937 l 0.1348,22.42969 c 0.062,2.54624 -4.1478,3.04038 -4.3164,0.27734 l -0.045,-42.69531 c -0.3206,-8.72289 -14.5509,-8.63208 -15.0254,0 l -0.1621,42.83399 c 0.1288,2.01739 -3.7466,2.13441 -3.8086,0.0918 l 0.418,-53.26563 c -1.3057,-3.91153 -4.2736,-5.70216 -7.2598,-5.91602 -0.2395,-0.0171 -0.4798,-0.0245 -0.7188,-0.0215 l 0,0 z"
         id="path6315"
         inkscape:connector-curvature="0"
         inkscape:export-xdpi="90"
         inkscape:export-ydpi="90" />
    </g>
  </g>
</svg>
