<?xml version="1.0" encoding="UTF-8" standalone="no"?>
<!-- Created with Inkscape (http://www.inkscape.org/) -->

<svg
   xmlns:dc="http://purl.org/dc/elements/1.1/"
   xmlns:cc="http://creativecommons.org/ns#"
   xmlns:rdf="http://www.w3.org/1999/02/22-rdf-syntax-ns#"
   xmlns:svg="http://www.w3.org/2000/svg"
   xmlns="http://www.w3.org/2000/svg"
   xmlns:sodipodi="http://sodipodi.sourceforge.net/DTD/sodipodi-0.dtd"
   xmlns:inkscape="http://www.inkscape.org/namespaces/inkscape"
   width="96"
   height="96"
   viewBox="0 0 96.000001 96.000002"
   id="svg6385"
   version="1.1"
   inkscape:version="0.91 r13725"
   sodipodi:docname="visual.svg">
  <defs
     id="defs6387" />
  <sodipodi:namedview
     id="base"
     pagecolor="#ffffff"
     bordercolor="#666666"
     borderopacity="1.0"
     inkscape:pageopacity="0.0"
     inkscape:pageshadow="2"
     inkscape:zoom="2.4384615"
     inkscape:cx="38.571429"
     inkscape:cy="58.571429"
     inkscape:document-units="px"
     inkscape:current-layer="layer1"
     showgrid="false"
     units="px"
     inkscape:window-width="1536"
     inkscape:window-height="801"
     inkscape:window-x="-8"
     inkscape:window-y="-8"
     inkscape:window-maximized="1" />
  <metadata
     id="metadata6390">
    <rdf:RDF>
      <cc:Work
         rdf:about="">
        <dc:format>image/svg+xml</dc:format>
        <dc:type
           rdf:resource="http://purl.org/dc/dcmitype/StillImage" />
        <dc:title></dc:title>
      </cc:Work>
    </rdf:RDF>
  </metadata>
  <g
     inkscape:label="Layer 1"
     inkscape:groupmode="layer"
     id="layer1"
     transform="translate(0,-956.36211)">
    <g
       inkscape:export-ydpi="90"
       inkscape:export-xdpi="90"
       transform="matrix(0.41740896,0,0,0.41740407,480.81994,820.66706)"
       id="g6269">
      <path
         style="opacity:1;fill:#ffffff;fill-opacity:1;fill-rule:nonzero;stroke:#ffffff;stroke-width:2.5;stroke-linecap:round;stroke-linejoin:miter;stroke-miterlimit:4;stroke-dasharray:none;stroke-dashoffset:0;stroke-opacity:1"
         d="m -1121.1884,327.18851 c -15.745,0 -28.4199,12.67488 -28.4199,28.41992 l 0,170.65039 c 0,15.74505 12.6749,28.41993 28.4199,28.41993 l 170.64845,0 c 15.74513,0 28.42193,-12.67488 28.42193,-28.41993 l 0,-170.65039 c 0,-15.74504 -12.6768,-28.41992 -28.42193,-28.41992 l -170.64845,0 z"
         id="path6271"
         inkscape:connector-curvature="0" />
      <path
         id="path6273"
         d="m -1121.1884,327.18851 c -15.745,0 -28.4199,12.67488 -28.4199,28.41992 l 0,170.65039 c 0,15.74505 12.6749,28.41993 28.4199,28.41993 l 170.64844,0 c 15.74513,0 28.42193,-12.67488 28.42193,-28.41993 l 0,-170.65039 c 0,-15.74504 -12.6768,-28.41992 -28.42193,-28.41992 l -170.64844,0 z m 61.1406,36.30468 9.0684,27.67382 c 41.9716,-4.331 73.37584,12.47243 94.88284,49.07031 -28.9448,-28.21459 -58.72834,-41.31337 -89.53324,-36.04687 l 0.6973,3.48828 c 39.3561,-8.5773 61.39844,42.61606 24.4199,65.34766 l 0.4629,3.72266 c 21.87224,-2.22671 43.21134,-16.72704 63.25584,-34.18554 -10.2213,18.4524 -22.5419,35.97019 -58.13864,47.90429 l 10.6972,27.67579 -12.789,0.23241 -40.9317,-112.32422 -9.0683,3.02148 30.2324,83.02539 -13.0254,-1.16405 -26.9746,-77.20898 -9.3027,5.8125 25.3476,69.07226 -15.3496,-6.28125 -19.5332,-57.67187 -8.3731,6.04492 14.8848,43.7207 c -10.9302,-9.1595 -18.3722,-18.52264 -26.5117,-33.02344 10.1433,-18.47091 24.318,-38.22091 53.9551,-46.9746 l -11.8614,-30.46681 13.4883,-0.46484 z"
         style="opacity:1;fill:#003984;fill-opacity:1;fill-rule:nonzero;stroke:none;stroke-width:2.5;stroke-linecap:round;stroke-linejoin:miter;stroke-miterlimit:4;stroke-dasharray:none;stroke-dashoffset:0;stroke-opacity:1"
         inkscape:connector-curvature="0"
         inkscape:export-xdpi="90"
         inkscape:export-ydpi="90" />
    </g>
  </g>
</svg>
